<svg width="179" height="48" viewBox="0 0 179 48" fill="none" xmlns="http://www.w3.org/2000/svg">
<path d="M17.2 15.72C19.8933 15.72 22.0533 16.5333 23.68 18.16C25.3333 19.7867 26.16 22.24 26.16 25.52V38H17.12V27.08C17.12 24.5733 16.2267 23.32 14.44 23.32C13.4267 23.32 12.6 23.68 11.96 24.4C11.3467 25.0933 11.04 26.2 11.04 27.72V38H2V16.12H10.6V18.28C11.4533 17.4267 12.44 16.7867 13.56 16.36C14.68 15.9333 15.8933 15.72 17.2 15.72ZM39.8459 17.32H44.6059V23.92H40.1259V38H31.0859V23.92H28.0859V17.32H31.0859V17.2C31.0859 14.3467 31.9393 12.0933 33.6459 10.44C35.3526 8.76 37.7526 7.92 40.8459 7.92C41.8593 7.92 42.8459 8.01333 43.8059 8.2C44.7659 8.38666 45.5659 8.65333 46.2059 9L44.0459 15.28C43.2993 14.9333 42.6193 14.76 42.0059 14.76C41.3393 14.76 40.8059 14.9733 40.4059 15.4C40.0326 15.8 39.8459 16.4267 39.8459 17.28V17.32ZM63.2372 37.24C61.8772 38.0133 60.0239 38.4 57.6772 38.4C54.6105 38.4 52.2505 37.6667 50.5972 36.2C48.9439 34.7067 48.1172 32.48 48.1172 29.52V23.92H45.1172V17.32H48.1172V11.2H57.1572V17.32H61.6372V23.92H57.1572V29.44C57.1572 30.1067 57.3305 30.6267 57.6772 31C58.0239 31.3733 58.4772 31.56 59.0372 31.56C59.8105 31.56 60.4905 31.36 61.0772 30.96L63.2372 37.24Z" fill="#33D8FF"/>
<path d="M74.56 38.4C72.6933 38.4 70.8533 38.2 69.04 37.8C67.2267 37.4 65.76 36.88 64.64 36.24L67.12 30.28C68.1333 30.8933 69.3333 31.3733 70.72 31.72C72.1067 32.0667 73.4533 32.24 74.76 32.24C75.8 32.24 76.52 32.16 76.92 32C77.3467 31.8133 77.56 31.5467 77.56 31.2C77.56 30.8533 77.2933 30.6133 76.76 30.48C76.2533 30.3467 75.4133 30.2133 74.24 30.08C72.4533 29.8667 70.9333 29.6 69.68 29.28C68.4267 28.9333 67.32 28.28 66.36 27.32C65.4267 26.36 64.96 24.9867 64.96 23.2C64.96 21.7867 65.3867 20.52 66.24 19.4C67.0933 18.28 68.36 17.3867 70.04 16.72C71.7467 16.0533 73.7867 15.72 76.16 15.72C77.8133 15.72 79.4267 15.88 81 16.2C82.6 16.4933 83.96 16.9333 85.08 17.52L82.6 23.48C80.68 22.4133 78.5733 21.88 76.28 21.88C74.3067 21.88 73.32 22.2267 73.32 22.92C73.32 23.2667 73.5867 23.52 74.12 23.68C74.6533 23.8133 75.4933 23.9467 76.64 24.08C78.4267 24.2933 79.9333 24.5733 81.16 24.92C82.4133 25.2667 83.5067 25.92 84.44 26.88C85.4 27.84 85.88 29.2133 85.88 31C85.88 32.36 85.4533 33.6 84.6 34.72C83.7467 35.84 82.4667 36.7333 80.76 37.4C79.0533 38.0667 76.9867 38.4 74.56 38.4ZM125.547 16.12L117.947 38H109.147L105.827 27.88L102.387 38H93.5866L85.9866 16.12H94.5466L98.3066 27.68L102.227 16.12H109.907L113.707 27.8L117.627 16.12H125.547ZM136.308 15.72C140.148 15.72 143.081 16.5867 145.108 18.32C147.134 20.0267 148.148 22.6667 148.148 26.24V38H139.748V35.12C138.708 37.3067 136.641 38.4 133.548 38.4C131.814 38.4 130.334 38.1067 129.108 37.52C127.908 36.9067 126.988 36.0933 126.348 35.08C125.734 34.04 125.428 32.88 125.428 31.6C125.428 29.44 126.254 27.8 127.908 26.68C129.561 25.56 132.068 25 135.428 25H139.068C138.774 23.2933 137.401 22.44 134.948 22.44C133.961 22.44 132.961 22.6 131.948 22.92C130.934 23.2133 130.068 23.6267 129.348 24.16L126.468 18.2C127.721 17.4267 129.228 16.8267 130.988 16.4C132.774 15.9467 134.548 15.72 136.308 15.72ZM136.268 32.96C136.908 32.96 137.481 32.7867 137.988 32.44C138.494 32.0933 138.868 31.5733 139.108 30.88V29.36H136.868C135.028 29.36 134.108 29.9733 134.108 31.2C134.108 31.7067 134.294 32.1333 134.668 32.48C135.068 32.8 135.601 32.96 136.268 32.96ZM166.655 15.72C168.575 15.72 170.335 16.1867 171.935 17.12C173.561 18.0267 174.841 19.3467 175.775 21.08C176.735 22.8133 177.215 24.8133 177.215 27.08C177.215 29.3467 176.735 31.3467 175.775 33.08C174.841 34.7867 173.561 36.1067 171.935 37.04C170.335 37.9467 168.575 38.4 166.655 38.4C164.228 38.4 162.375 37.7733 161.095 36.52V45.76H152.055V16.12H160.655V17.92C161.961 16.4533 163.961 15.72 166.655 15.72ZM164.495 31.36C165.535 31.36 166.388 30.9867 167.055 30.24C167.721 29.4933 168.055 28.44 168.055 27.08C168.055 25.72 167.721 24.6667 167.055 23.92C166.388 23.1467 165.535 22.76 164.495 22.76C163.455 22.76 162.601 23.1467 161.935 23.92C161.268 24.6667 160.935 25.72 160.935 27.08C160.935 28.44 161.268 29.4933 161.935 30.24C162.601 30.9867 163.455 31.36 164.495 31.36Z" fill="#F5A900"/>
</svg>
