<svg width="108" height="40" viewBox="0 0 108 40" fill="none" xmlns="http://www.w3.org/2000/svg">
<path d="M10.32 15.632C11.936 15.632 13.232 16.12 14.208 17.096C15.2 18.072 15.696 19.544 15.696 21.512V29H10.272V22.448C10.272 20.944 9.736 20.192 8.664 20.192C8.056 20.192 7.56 20.408 7.176 20.84C6.808 21.256 6.624 21.92 6.624 22.832V29H1.2V15.872H6.36V17.168C6.872 16.656 7.464 16.272 8.136 16.016C8.808 15.76 9.536 15.632 10.32 15.632ZM23.9076 16.592H26.7636V20.552H24.0756V29H18.6516V20.552H16.8516V16.592H18.6516V16.52C18.6516 14.808 19.1636 13.456 20.1876 12.464C21.2116 11.456 22.6516 10.952 24.5076 10.952C25.1156 10.952 25.7076 11.008 26.2836 11.12C26.8596 11.232 27.3396 11.392 27.7236 11.6L26.4276 15.368C25.9796 15.16 25.5716 15.056 25.2036 15.056C24.8036 15.056 24.4836 15.184 24.2436 15.44C24.0196 15.68 23.9076 16.056 23.9076 16.568V16.592ZM37.9423 28.544C37.1263 29.008 36.0143 29.24 34.6063 29.24C32.7663 29.24 31.3503 28.8 30.3583 27.92C29.3663 27.024 28.8703 25.688 28.8703 23.912V20.552H27.0703V16.592H28.8703V12.92H34.2943V16.592H36.9823V20.552H34.2943V23.864C34.2943 24.264 34.3983 24.576 34.6063 24.8C34.8143 25.024 35.0863 25.136 35.4223 25.136C35.8863 25.136 36.2943 25.016 36.6463 24.776L37.9423 28.544Z" fill="#33D8FF"/>
<path d="M45.336 29.24C44.216 29.24 43.112 29.12 42.024 28.88C40.936 28.64 40.056 28.328 39.384 27.944L40.872 24.368C41.48 24.736 42.2 25.024 43.032 25.232C43.864 25.44 44.672 25.544 45.456 25.544C46.08 25.544 46.512 25.496 46.752 25.4C47.008 25.288 47.136 25.128 47.136 24.92C47.136 24.712 46.976 24.568 46.656 24.488C46.352 24.408 45.848 24.328 45.144 24.248C44.072 24.12 43.16 23.96 42.408 23.768C41.656 23.56 40.992 23.168 40.416 22.592C39.856 22.016 39.576 21.192 39.576 20.12C39.576 19.272 39.832 18.512 40.344 17.84C40.856 17.168 41.616 16.632 42.624 16.232C43.648 15.832 44.872 15.632 46.296 15.632C47.288 15.632 48.256 15.728 49.2 15.92C50.16 16.096 50.976 16.36 51.648 16.712L50.16 20.288C49.008 19.648 47.744 19.328 46.368 19.328C45.184 19.328 44.592 19.536 44.592 19.952C44.592 20.16 44.752 20.312 45.072 20.408C45.392 20.488 45.896 20.568 46.584 20.648C47.656 20.776 48.56 20.944 49.296 21.152C50.048 21.36 50.704 21.752 51.264 22.328C51.84 22.904 52.128 23.728 52.128 24.8C52.128 25.616 51.872 26.36 51.36 27.032C50.848 27.704 50.08 28.24 49.056 28.64C48.032 29.04 46.792 29.24 45.336 29.24ZM75.9279 15.872L71.3679 29H66.0879L64.0959 22.928L62.0319 29H56.7519L52.1919 15.872H57.3279L59.5839 22.808L61.9359 15.872H66.5439L68.8239 22.88L71.1759 15.872H75.9279ZM82.3847 15.632C84.6887 15.632 86.4487 16.152 87.6647 17.192C88.8807 18.216 89.4887 19.8 89.4887 21.944V29H84.4487V27.272C83.8247 28.584 82.5847 29.24 80.7287 29.24C79.6887 29.24 78.8007 29.064 78.0647 28.712C77.3447 28.344 76.7927 27.856 76.4087 27.248C76.0407 26.624 75.8567 25.928 75.8567 25.16C75.8567 23.864 76.3527 22.88 77.3447 22.208C78.3367 21.536 79.8407 21.2 81.8567 21.2H84.0407C83.8647 20.176 83.0407 19.664 81.5687 19.664C80.9767 19.664 80.3767 19.76 79.7687 19.952C79.1607 20.128 78.6407 20.376 78.2087 20.696L76.4807 17.12C77.2327 16.656 78.1367 16.296 79.1927 16.04C80.2647 15.768 81.3287 15.632 82.3847 15.632ZM82.3607 25.976C82.7447 25.976 83.0887 25.872 83.3927 25.664C83.6967 25.456 83.9207 25.144 84.0647 24.728V23.816H82.7207C81.6167 23.816 81.0647 24.184 81.0647 24.92C81.0647 25.224 81.1767 25.48 81.4007 25.688C81.6407 25.88 81.9607 25.976 82.3607 25.976ZM100.593 15.632C101.745 15.632 102.801 15.912 103.761 16.472C104.737 17.016 105.505 17.808 106.065 18.848C106.641 19.888 106.929 21.088 106.929 22.448C106.929 23.808 106.641 25.008 106.065 26.048C105.505 27.072 104.737 27.864 103.761 28.424C102.801 28.968 101.745 29.24 100.593 29.24C99.1368 29.24 98.0248 28.864 97.2568 28.112V33.656H91.8328V15.872H96.9928V16.952C97.7768 16.072 98.9768 15.632 100.593 15.632ZM99.2968 25.016C99.9208 25.016 100.433 24.792 100.833 24.344C101.233 23.896 101.433 23.264 101.433 22.448C101.433 21.632 101.233 21 100.833 20.552C100.433 20.088 99.9208 19.856 99.2968 19.856C98.6728 19.856 98.1608 20.088 97.7608 20.552C97.3608 21 97.1608 21.632 97.1608 22.448C97.1608 23.264 97.3608 23.896 97.7608 24.344C98.1608 24.792 98.6728 25.016 99.2968 25.016Z" fill="#F5A900"/>
</svg>
